<?xml version="1.0" encoding="utf-8"?>
<!-- Generator: Adobe Illustrator 23.0.6, SVG Export Plug-In . SVG Version: 6.00 Build 0)  -->
<svg version="1.1" id="Layer_1" xmlns="http://www.w3.org/2000/svg" xmlns:xlink="http://www.w3.org/1999/xlink" x="0px" y="0px"
	 viewBox="0 0 19 18" style="enable-background:new 0 0 19 18;" xml:space="preserve">
<style type="text/css">
	.st0{fill:#3F3F3F;}
</style>
<path class="st0" d="M18.4,10.3h-3.6V5.2c0-2.8-2.3-5.1-5.1-5.1S4.6,2.4,4.6,5.2l-0.1,5.1H2H0.9c-0.3,0-0.5,0.2-0.5,0.5
	s0.2,0.5,0.5,0.5l0.5,0.1v6.1c0,0.3,0.2,0.5,0.5,0.5l0,0h14.8h0.5c0.3,0,0.5-0.2,0.5-0.5l0.1-6.1h0.5c0.3,0,0.5-0.2,0.5-0.5
	C18.9,10.6,18.6,10.3,18.4,10.3z M10.1,1.1l0.3,0.1c1.9,0.4,3.3,2.1,3.3,4l-0.1,0.3l-3.5-0.1V1.1z M13.7,6.6v3.8h-3.5V6.5L13.7,6.6z
	 M5.5,5.2c0-1.9,1.4-3.6,3.3-4l0.3-0.1v4.4L5.5,5.4V5.2z M5.5,6.5l3.6,0.1L9,10.4H5.5V6.5z M4.5,16.9h-2v-5.5h1.3h0.7V16.9z
	 M7.5,16.9h-2v-5.5h1.3h0.7V16.9z M10.6,16.9h-2v-5.5h1.3h0.7V16.9z M13.7,16.9h-2v-5.5H13h0.7V16.9z M16.8,16.9h-2v-5.5h1.3h0.7
	V16.9z"/>
</svg>
