<?xml version="1.0" encoding="utf-8"?>
<!-- Generator: Adobe Illustrator 23.0.6, SVG Export Plug-In . SVG Version: 6.00 Build 0)  -->
<svg version="1.1" id="Layer_1" xmlns="http://www.w3.org/2000/svg" xmlns:xlink="http://www.w3.org/1999/xlink" x="0px" y="0px"
	 viewBox="0 0 18.9 23" style="enable-background:new 0 0 18.9 23;" xml:space="preserve">
<style type="text/css">
	.st0{fill:#3F3F3F;}
</style>
<path class="st0" d="M18.1,0.2H2.8c-0.3,0-0.6,0.3-0.6,0.6v0.3H1.4v0.6H0.8c-0.3,0-0.6,0.3-0.6,0.6C0.2,2.7,0.5,3,0.8,3h0.6v0.7h0.8
	v17.5v0.9c0,0.3,0.3,0.6,0.6,0.6s0.6-0.3,0.6-0.6v-0.3h14v0.3c0,0.3,0.3,0.6,0.6,0.6c0.3,0,0.6-0.3,0.6-0.6v-0.9V0.8
	C18.7,0.5,18.4,0.2,18.1,0.2z M3.5,20.7V1.5h1.9l0,19.2H3.5z M8.4,20.7H6.6V1.5h1.8V20.7z M11.4,20.7H9.6V1.5h1.8V20.7z M14.5,20.7
	h-1.8V1.5h1.8V20.7z M17.5,20.7h-1.8V1.5h1.8V20.7z"/>
</svg>
