<?xml version="1.0" encoding="utf-8"?>
<!-- Generator: Adobe Illustrator 23.0.6, SVG Export Plug-In . SVG Version: 6.00 Build 0)  -->
<svg version="1.1" id="Layer_1" xmlns="http://www.w3.org/2000/svg" xmlns:xlink="http://www.w3.org/1999/xlink" x="0px" y="0px"
	 viewBox="0 0 18.9 23" style="enable-background:new 0 0 18.9 23;" xml:space="preserve">
<style type="text/css">
	.st0{fill:#3F3F3F;}
</style>
<g>
	<path class="st0" d="M18.4,8c-0.4,0-0.6,0.3-0.6,0.6v2H1.3v-2C1.3,8.3,1,8,0.7,8S0.1,8.3,0.1,8.6V22c0,0.4,0.3,0.6,0.6,0.6
		s0.6-0.3,0.6-0.6v-1.3h16.4V22c0,0.4,0.3,0.6,0.6,0.6c0.4,0,0.6-0.3,0.6-0.6V8.6C19,8.3,18.7,8,18.4,8z M3.9,19.4H1.3v-1.3h2.6
		V19.4z M3.9,16.9H1.3v-5h2.6V16.9z M7.3,19.4h-2v-1.3h2V19.4z M7.3,16.9h-2v-5h2V16.9z M10.6,19.4h-2v-1.3h2V19.4z M10.6,16.9h-2
		v-5h2V16.9z M13.9,19.4h-2v-1.3h2V19.4z M13.9,16.9h-2v-5h2V16.9z M17.8,19.4h-2.6v-1.3h2.6V19.4z M17.8,16.9h-2.6v-5h2.6V16.9z"/>
	<path class="st0" d="M4.9,1.9h4v0.8l-0.5,1L7.2,3.9C6.8,4,6.6,4.5,6.9,4.9l0.9,0.9L7.6,7C7.5,7.4,8,7.8,8.4,7.6L9.5,7l1.1,0.6
		c0.4,0.2,0.9-0.1,0.8-0.6l-0.2-1.2l0.9-0.9c0.3-0.3,0.1-0.9-0.3-0.9l-1.3-0.2l-0.5-1V1.9h4c0.3,0,0.6-0.2,0.6-0.6s-0.2-0.6-0.6-0.6
		H9.5H4.9C4.6,0.8,4.4,1,4.4,1.3S4.6,1.9,4.9,1.9z M9.3,4.5l0.2-0.4l0.2,0.4c0.1,0.2,0.2,0.3,0.4,0.3l0.4,0.1l-0.3,0.3
		c-0.1,0.1-0.2,0.3-0.2,0.5l0.1,0.4L9.8,5.9c-0.2-0.1-0.4-0.1-0.5,0L8.9,6.1L9,5.6c0-0.2,0-0.4-0.2-0.5L8.5,4.8l0.4-0.1
		C9.1,4.8,9.3,4.6,9.3,4.5z"/>
</g>
</svg>
