<?xml version="1.0" encoding="utf-8"?>
<!-- Generator: Adobe Illustrator 23.0.6, SVG Export Plug-In . SVG Version: 6.00 Build 0)  -->
<svg version="1.1" id="Layer_1" xmlns="http://www.w3.org/2000/svg" xmlns:xlink="http://www.w3.org/1999/xlink" x="0px" y="0px"
	 viewBox="0 0 20 23" style="enable-background:new 0 0 20 23;" xml:space="preserve">
<style type="text/css">
	.st0{fill:#3F3F3F;}
</style>
<g>
	<path class="st0" d="M14.7,12.8v0.2h1v-0.2c0-1.7-1.4-3.1-3.1-3.1h-0.2v1h0.2C13.7,10.6,14.7,11.6,14.7,12.8z"/>
	<path class="st0" d="M18.4,0.1H1.6c-0.8,0-1.5,0.7-1.5,1.5v19.7c0,0.8,0.7,1.5,1.5,1.5h16.7c0.8,0,1.5-0.7,1.5-1.5V1.7
		C19.9,0.8,19.2,0.1,18.4,0.1z M18.5,21.3c0,0.1-0.1,0.1-0.1,0.1H1.6c-0.1,0-0.1-0.1-0.1-0.1v-6.8h17V21.3z M8.2,13.1l0,0.2H4l0-0.2
		c0.2-1.4,1.3-2.5,2.7-2.5c0.6,0,1.2,0.2,1.7,0.6c-0.2,0.5-0.3,1-0.3,1.5C8.2,12.9,8.2,13,8.2,13.1z M9.2,12.8
		c0-1.9,1.5-3.4,3.4-3.4c1.9,0,3.4,1.5,3.4,3.4c0,0,0,0.3,0,0.5H9.2l0-0.2C9.2,13,9.2,12.9,9.2,12.8z M18.5,13.3h-1.6
		c0-0.3,0-0.5,0-0.5c0-1.2-0.5-2.3-1.3-3.1c-0.8-0.8-1.9-1.3-3.1-1.3c-1.5,0-2.9,0.8-3.7,2C8.3,9.9,7.5,9.6,6.8,9.6
		c-1.9,0-3.5,1.5-3.7,3.4l0,0.2H1.5v-7h17V13.3z M18.5,5h-17V1.7c0-0.1,0.1-0.1,0.1-0.1h16.7c0.1,0,0.1,0.1,0.1,0.1V5z"/>
</g>
<g>
	<path class="st0" d="M6.6,3.9H3.4C3,3.9,2.7,3.6,2.7,3.2v0c0-0.4,0.3-0.7,0.7-0.7h3.2c0.4,0,0.7,0.3,0.7,0.7v0
		C7.3,3.6,7,3.9,6.6,3.9z"/>
	<path class="st0" d="M13.4,3.9h-0.9c-0.4,0-0.7-0.3-0.7-0.7v0c0-0.4,0.3-0.7,0.7-0.7h0.9c0.4,0,0.7,0.3,0.7,0.7v0
		C14,3.6,13.7,3.9,13.4,3.9z"/>
	<path class="st0" d="M16.6,3.9h-0.9c-0.4,0-0.7-0.3-0.7-0.7v0c0-0.4,0.3-0.7,0.7-0.7h0.9c0.4,0,0.7,0.3,0.7,0.7v0
		C17.3,3.6,17,3.9,16.6,3.9z"/>
</g>
</svg>
