<?xml version="1.0" encoding="utf-8"?>
<!-- Generator: Adobe Illustrator 23.0.6, SVG Export Plug-In . SVG Version: 6.00 Build 0)  -->
<svg version="1.1" id="Layer_1" xmlns="http://www.w3.org/2000/svg" xmlns:xlink="http://www.w3.org/1999/xlink" x="0px" y="0px"
	 viewBox="0 0 18.9 20.9" style="enable-background:new 0 0 18.9 20.9;" xml:space="preserve">
<style type="text/css">
	.st0{fill:#3F3F3F;}
</style>
<path class="st0" d="M13.8,0.9H5.2c-2.8,0-5,2.3-5,5c0,1.7,0.9,3.2,2.2,4.1v6.2c0,2.1,1.7,3.9,3.9,3.9c1,0,1.8-0.8,1.8-1.8V10
	c1.2-0.8,2-2,2.1-3.5h3.6c0.4,0,0.7-0.3,0.7-0.7V1.5C14.5,1.1,14.2,0.9,13.8,0.9z M6.7,18.3c0,0.3-0.2,0.5-0.5,0.5
	c-1.4,0-2.6-1.2-2.6-2.6v-5.5c0.5,0.2,1,0.2,1.5,0.2c0.5,0,1-0.1,1.5-0.2V18.3z M5.2,9.6c-2.1,0-3.7-1.7-3.7-3.7
	c0-2.1,1.7-3.7,3.7-3.7c2.1,0,3.7,1.7,3.7,3.7S7.3,9.6,5.2,9.6z M10.2,5.2C10,4,9.5,2.9,8.6,2.2h4.6v3.1H10.2z"/>
<g>
	<path class="st0" d="M18.1,0.9h-2.4c-0.4,0-0.7,0.3-0.7,0.7c0,0.4,0.3,0.7,0.7,0.7h2.4c0.4,0,0.7-0.3,0.7-0.7
		C18.8,1.1,18.5,0.9,18.1,0.9z"/>
	<path class="st0" d="M18.1,3h-2.4C15.3,3,15,3.3,15,3.7c0,0.4,0.3,0.7,0.7,0.7h2.4c0.4,0,0.7-0.3,0.7-0.7S18.5,3,18.1,3z"/>
	<path class="st0" d="M18.1,5.2h-2.4c-0.4,0-0.7,0.3-0.7,0.7c0,0.4,0.3,0.7,0.7,0.7h2.4c0.4,0,0.7-0.3,0.7-0.7
		C18.8,5.5,18.5,5.2,18.1,5.2z"/>
</g>
</svg>
