<?xml version="1.0" encoding="utf-8"?>
<!-- Generator: Adobe Illustrator 23.0.6, SVG Export Plug-In . SVG Version: 6.00 Build 0)  -->
<svg version="1.1" id="Layer_1" xmlns="http://www.w3.org/2000/svg" xmlns:xlink="http://www.w3.org/1999/xlink" x="0px" y="0px"
	 viewBox="0 0 18.9 23" style="enable-background:new 0 0 18.9 23;" xml:space="preserve">
<style type="text/css">
	.st0{fill:#3F3F3F;}
</style>
<path class="st0" d="M0.7,22.8c-0.3,0-0.6-0.3-0.6-0.6V12c0-0.3,0.3-0.6,0.6-0.6h9.4l0.1-7.2c0-0.3,0.3-0.6,0.6-0.6h7.5
	c0.3,0,0.6,0.3,0.6,0.6v18c0,0.3-0.3,0.6-0.6,0.6H0.7z M11.3,21.6l6.3,0.1l0.1-9l-6.4-0.1V21.6z M8.9,21.6l1.2,0.1l0.1-6.4l-1.3-0.1
	V21.6z M1.2,21.6l6.4,0.1l0.1-6.4l-6.5-0.1V21.6z M1.2,13.9l8.9,0.1l0.1-1.3l-8.9-0.1V13.9z M11.3,11.4l6.3,0.1l0.1-6.6l-6.4-0.1
	V11.4z"/>
<path class="st0" d="M0.7,9C0.4,9,0.1,8.7,0.1,8.4V6.7c0-0.2,0.1-0.3,0.2-0.4l2.8-2.4l0-2.7c0-0.3,0.3-0.6,0.6-0.6h2.4
	c0.3,0,0.6,0.3,0.6,0.6v2.7l2.8,2.4c0.1,0.1,0.2,0.3,0.2,0.4v1.7C9.7,8.7,9.4,9,9.1,9H0.7z M1.3,6.9l0,0.8l7.2,0.1L8.5,7L5.9,4.7
	l-2,0L1.3,6.9z M4.3,3.5l1.2,0.1l0.1-1.8L4.3,1.8V3.5z"/>
<path class="st0" d="M13.3,9c-0.3,0-0.6-0.3-0.6-0.6V7.1c0-0.3,0.3-0.6,0.6-0.6s0.6,0.3,0.6,0.6v1.3C13.9,8.7,13.7,9,13.3,9z"/>
<path class="st0" d="M13.3,16.3c-0.3,0-0.6-0.3-0.6-0.6v-1.3c0-0.3,0.3-0.6,0.6-0.6s0.6,0.3,0.6,0.6v1.3
	C13.9,16.1,13.7,16.3,13.3,16.3z"/>
<path class="st0" d="M5.8,19.5c-0.3,0-0.6-0.3-0.6-0.6v-1.3c0-0.3,0.3-0.6,0.6-0.6s0.6,0.3,0.6,0.6v1.3C6.4,19.3,6.1,19.5,5.8,19.5z
	"/>
</svg>
