<?xml version="1.0" encoding="utf-8"?>
<!-- Generator: Adobe Illustrator 23.0.6, SVG Export Plug-In . SVG Version: 6.00 Build 0)  -->
<svg version="1.1" id="Layer_1" xmlns="http://www.w3.org/2000/svg" xmlns:xlink="http://www.w3.org/1999/xlink" x="0px" y="0px"
	 viewBox="0 0 21.2 19.1" style="enable-background:new 0 0 21.2 19.1;" xml:space="preserve">
<style type="text/css">
	.st0{fill:#3F3F3F;}
</style>
<g>
	<path class="st0" d="M1.4,18.1c-0.8,0-1.4-0.6-1.4-1.4V2.2c0-0.8,0.7-1.4,1.4-1.4h18.3c0.8,0,1.4,0.6,1.4,1.4v14.4
		c0,0.8-0.7,1.4-1.4,1.4H1.4z M15.4,16.8l4.3,0.1c0.1,0,0.2-0.1,0.2-0.2V2.2c0-0.1-0.1-0.2-0.2-0.2h-4.3V16.8z M1.4,2
		C1.3,2,1.3,2.1,1.3,2.2v14.4c0,0.1,0.1,0.2,0.2,0.2h12.8l0.1-14.7L1.4,2z"/>
	<path class="st0" d="M17.7,13c-0.9,0-1.6-0.7-1.6-1.6c0-0.7,0.4-1.3,1.1-1.5l0-0.4c0-0.3,0.2-0.5,0.5-0.5s0.5,0.2,0.5,0.5v0.3
		c0.7,0.3,1.1,0.9,1.1,1.6C19.3,12.3,18.6,13,17.7,13z M17.7,10.8c-0.4,0-0.6,0.3-0.6,0.6c0,0.4,0.3,0.6,0.6,0.6
		c0.4,0,0.6-0.3,0.6-0.6C18.3,11.1,18,10.8,17.7,10.8z"/>
	<path class="st0" d="M17.1,4.4c-0.3,0-0.5-0.2-0.5-0.5s0.2-0.5,0.5-0.5h1.1c0.3,0,0.5,0.2,0.5,0.5s-0.2,0.5-0.5,0.5H17.1z"/>
	<path class="st0" d="M17.1,6.9c-0.3,0-0.5-0.2-0.5-0.5c0-0.3,0.2-0.5,0.5-0.5h1.1c0.3,0,0.5,0.2,0.5,0.5c0,0.3-0.2,0.5-0.5,0.5
		H17.1z"/>
	<path class="st0" d="M17.1,15.4c-0.3,0-0.5-0.2-0.5-0.5c0-0.3,0.2-0.5,0.5-0.5h1.1c0.3,0,0.5,0.2,0.5,0.5c0,0.3-0.2,0.5-0.5,0.5
		H17.1z"/>
	<path class="st0" d="M10.6,13.6c-0.2,0-0.3-0.1-0.4-0.3c-0.2-0.5-0.3-0.9-0.3-1.3c0-0.5,0.2-0.9,0.3-1.2c0.1-0.3,0.2-0.5,0.2-0.8
		c0-0.2-0.1-0.5-0.2-0.7C9.9,8.9,9.8,8.4,9.8,8.1c0-0.5,0.2-0.9,0.3-1.2c0.1-0.3,0.2-0.5,0.2-0.8c0-0.2-0.1-0.5-0.2-0.7
		c0-0.1,0-0.1,0-0.2c0-0.2,0.1-0.3,0.3-0.4c0.1,0,0.1,0,0.2,0c0.1,0,0.1,0,0.2,0c0.1,0,0.2,0.1,0.3,0.2c0.2,0.4,0.3,0.8,0.3,1.1
		c0,0.4-0.2,0.8-0.3,1.1c-0.1,0.3-0.2,0.5-0.2,0.9c0,0.3,0.1,0.6,0.2,0.9c0.2,0.4,0.3,0.8,0.3,1.1c0,0.4-0.2,0.8-0.3,1.1
		c-0.1,0.3-0.2,0.5-0.2,0.9c0,0.3,0.1,0.6,0.2,0.9c0,0,0,0.1,0,0.2c0,0.2-0.1,0.3-0.3,0.4C10.7,13.6,10.6,13.6,10.6,13.6z"/>
	<path class="st0" d="M7.7,13.6l-0.1,0c-0.1,0-0.2-0.1-0.3-0.2C7.2,12.9,7,12.4,7,12.1c0-0.5,0.2-0.9,0.3-1.2
		c0.1-0.3,0.2-0.5,0.2-0.8c0-0.2-0.1-0.5-0.2-0.7l0-0.1C7.2,8.9,7.1,8.4,7.1,8.1c0-0.5,0.2-0.9,0.3-1.2c0.1-0.3,0.2-0.5,0.2-0.8
		c0-0.2-0.1-0.5-0.2-0.7c0-0.1,0-0.1,0-0.2c0-0.2,0.1-0.3,0.3-0.4c0.1,0,0.1,0,0.2,0C8,4.7,8.1,4.8,8.2,5c0.2,0.4,0.3,0.8,0.3,1.1
		c0,0.5-0.2,0.8-0.3,1.1C8.1,7.5,8,7.7,8,8.1C8,8.3,8.1,8.6,8.2,9c0.2,0.4,0.3,0.8,0.3,1.1c0,0.4-0.2,0.8-0.3,1.1
		C8.1,11.5,8,11.8,8,12.1c0,0.3,0.1,0.6,0.2,0.9c0,0,0,0.1,0,0.2c0,0.2-0.1,0.4-0.3,0.4C7.9,13.6,7.8,13.6,7.7,13.6L7.7,13.6z"/>
	<path class="st0" d="M5,13.6c-0.1,0-0.1,0-0.2,0c-0.1,0-0.2-0.1-0.2-0.2c-0.2-0.5-0.3-0.9-0.3-1.3c0-0.5,0.2-0.9,0.3-1.2
		c0.1-0.3,0.2-0.5,0.2-0.8c0-0.2-0.1-0.5-0.2-0.7l0-0.1C4.4,8.9,4.3,8.4,4.3,8.1c0-0.5,0.2-0.9,0.3-1.2c0.1-0.3,0.2-0.5,0.2-0.8
		c0-0.2-0.1-0.5-0.2-0.7c0-0.1,0-0.1,0-0.2c0-0.2,0.1-0.3,0.3-0.4c0.1,0,0.1,0,0.2,0c0.1,0,0.1,0,0.2,0c0.1,0,0.2,0.1,0.2,0.2
		c0.2,0.4,0.3,0.8,0.3,1.1c0,0.4-0.2,0.8-0.3,1.1C5.3,7.5,5.2,7.7,5.2,8.1c0,0.3,0.1,0.6,0.2,0.9c0.2,0.4,0.3,0.8,0.3,1.1
		c0,0.4-0.2,0.8-0.3,1.1c-0.1,0.3-0.2,0.5-0.2,0.9c0,0.3,0.1,0.6,0.2,0.9c0,0.1,0,0.1,0,0.2c0,0.2-0.1,0.3-0.3,0.4
		C5.2,13.6,5.1,13.6,5,13.6z"/>
</g>
</svg>
