<?xml version="1.0" encoding="utf-8"?>
<!-- Generator: Adobe Illustrator 23.0.6, SVG Export Plug-In . SVG Version: 6.00 Build 0)  -->
<svg version="1.1" id="Layer_1" xmlns="http://www.w3.org/2000/svg" xmlns:xlink="http://www.w3.org/1999/xlink" x="0px" y="0px"
	 viewBox="0 0 19 18" style="enable-background:new 0 0 19 18;" xml:space="preserve">
<style type="text/css">
	.st0{fill:#3F3F3F;}
</style>
<path class="st0" d="M18.3,16.2H18l-3-4.7c2.2-0.8,3.8-2.9,3.8-5.4c0-3.2-2.6-5.8-5.8-5.8C9.8,0.3,7.3,2.9,7.3,6
	c0,1.1,0.3,2.2,0.9,3.1l0.6-1C8.5,7.5,8.3,6.8,8.3,6c0-2.6,2.1-4.7,4.7-4.7s4.7,2.1,4.7,4.7c0,2.1-1.4,3.9-3.3,4.5l-2.5-4.1
	c-0.1-0.2-0.4-0.4-0.6-0.5c0,0-0.2-0.1-0.5-0.1c-0.2,0-0.4,0.1-0.4,0.1C10.2,6,10,6.2,9.8,6.4l-2.3,3.8L7,9.5C6.8,9.1,6.4,8.9,6,8.9
	S5.2,9.1,4.9,9.5l-4.1,6.7H0.6c-0.3,0-0.6,0.3-0.6,0.6c0,0.3,0.3,0.6,0.6,0.6h17.7c0.3,0,0.6-0.3,0.6-0.6
	C18.9,16.4,18.7,16.2,18.3,16.2z M7.2,16.2H2.1l3.8-6L6,10.1c0,0,0.1,0,0.1,0.1l0.7,1.1l-1.3,2c-0.2,0.3-0.1,0.6,0.2,0.8
	c0.1,0.1,0.2,0.1,0.3,0.1c0.2,0,0.4-0.1,0.5-0.3l4.3-6.8L10.9,7c0,0,0.1,0,0.1,0.1l3.7,5.9l2,3.2L7.2,16.2z"/>
</svg>
