<?xml version="1.0" encoding="utf-8"?>
<!-- Generator: Adobe Illustrator 23.0.6, SVG Export Plug-In . SVG Version: 6.00 Build 0)  -->
<svg version="1.1" id="Layer_1" xmlns="http://www.w3.org/2000/svg" xmlns:xlink="http://www.w3.org/1999/xlink" x="0px" y="0px"
	 viewBox="0 0 19 18" style="enable-background:new 0 0 19 18;" xml:space="preserve">
<style type="text/css">
	.st0{fill:#3F3F3F;}
</style>
<path class="st0" d="M18.3,16.7h-3.7V9.9C17,9.6,18.9,7.5,18.9,5c0-2.7-2.2-4.9-4.9-4.9S9.1,2.3,9.1,5c0,2.5,1.9,4.6,4.3,4.9v6.8
	h-2.7v-2H11c0.3,0,0.5-0.2,0.5-0.5s-0.2-0.5-0.5-0.5h-0.3V11c0-0.3-0.2-0.5-0.5-0.5h-0.1h-8c-0.3,0-0.5,0.2-0.5,0.5v2.7H1.3
	c-0.3,0-0.5,0.2-0.5,0.5s0.2,0.5,0.5,0.5h0.3v2H0.7c-0.3,0-0.6,0.3-0.6,0.6c0,0.3,0.3,0.6,0.6,0.6h17.6c0.3,0,0.6-0.3,0.6-0.6
	C18.9,17,18.7,16.7,18.3,16.7z M10.2,5c0-2.1,1.7-3.8,3.8-3.8s3.8,1.7,3.8,3.8c0,1.9-1.4,3.5-3.2,3.7l-0.1-2l1-1
	c0.2-0.2,0.2-0.6,0-0.8c-0.1-0.1-0.2-0.2-0.4-0.2c-0.1,0-0.3,0.1-0.4,0.2L14,5.7L13.3,5c-0.1-0.1-0.2-0.2-0.4-0.2S12.6,4.9,12.5,5
	c-0.1,0.1-0.2,0.2-0.2,0.4c0,0.1,0.1,0.3,0.2,0.4l0.9,0.8v2.1C11.6,8.5,10.2,6.9,10.2,5z M2.7,11.5h7v2.1h-7
	C2.7,13.6,2.7,11.5,2.7,11.5z M2.7,14.7h7v2h-7C2.7,16.7,2.7,14.7,2.7,14.7z"/>
</svg>
