<?xml version="1.0" encoding="utf-8"?>
<!-- Generator: Adobe Illustrator 23.0.6, SVG Export Plug-In . SVG Version: 6.00 Build 0)  -->
<svg version="1.1" id="Layer_1" xmlns="http://www.w3.org/2000/svg" xmlns:xlink="http://www.w3.org/1999/xlink" x="0px" y="0px"
	 viewBox="0 0 18.9 23" style="enable-background:new 0 0 18.9 23;" xml:space="preserve">
<style type="text/css">
	.st0{fill:#3F3F3F;}
</style>
<g>
	<path class="st0" d="M17,6.7H4.6l12-5.1c0.3-0.1,0.5-0.5,0.3-0.8c-0.1-0.3-0.5-0.5-0.8-0.3L1.4,6.7c-0.1,0-0.2,0.1-0.2,0.2
		c-0.6,0.3-1,0.9-1,1.6v12.3c0,1,0.8,1.8,1.8,1.8h15c1,0,1.8-0.8,1.8-1.8V8.6C18.8,7.5,18,6.7,17,6.7z M17,21.5H2
		c-0.3,0-0.6-0.3-0.6-0.6V8.6c0-0.3,0.3-0.6,0.6-0.6h15c0.3,0,0.6,0.3,0.6,0.6v12.3h0C17.6,21.2,17.3,21.5,17,21.5z"/>
	<path class="st0" d="M6.6,10.7c-2.2,0-4.1,1.8-4.1,4.1s1.8,4.1,4.1,4.1s4.1-1.8,4.1-4.1C10.6,12.5,8.8,10.7,6.6,10.7z M6.6,17.6
		c-1.6,0-2.8-1.3-2.8-2.8s1.3-2.8,2.8-2.8c1.6,0,2.8,1.3,2.8,2.8C9.4,16.3,8.1,17.6,6.6,17.6z"/>
</g>
<path class="st0" d="M15.9,13.1h-3.6c-0.3,0-0.6-0.3-0.6-0.6v0c0-0.3,0.3-0.6,0.6-0.6h3.6c0.3,0,0.6,0.3,0.6,0.6v0
	C16.5,12.8,16.2,13.1,15.9,13.1z"/>
<path class="st0" d="M15.9,15.1h-3.6c-0.3,0-0.6-0.3-0.6-0.6v0c0-0.3,0.3-0.6,0.6-0.6h3.6c0.3,0,0.6,0.3,0.6,0.6v0
	C16.5,14.8,16.2,15.1,15.9,15.1z"/>
<path class="st0" d="M15.9,17.1h-3.6c-0.3,0-0.6-0.3-0.6-0.6v0c0-0.3,0.3-0.6,0.6-0.6h3.6c0.3,0,0.6,0.3,0.6,0.6v0
	C16.5,16.8,16.2,17.1,15.9,17.1z"/>
</svg>
