<?xml version="1.0" encoding="utf-8"?>
<!-- Generator: Adobe Illustrator 23.0.6, SVG Export Plug-In . SVG Version: 6.00 Build 0)  -->
<svg version="1.1" id="Layer_1" xmlns="http://www.w3.org/2000/svg" xmlns:xlink="http://www.w3.org/1999/xlink" x="0px" y="0px"
	 viewBox="0 0 18.9 23" style="enable-background:new 0 0 18.9 23;" xml:space="preserve">
<style type="text/css">
	.st0{fill:#3F3F3F;}
</style>
<g>
	<path class="st0" d="M14.5,5.8V3.3c0-0.4,0.3-0.7,0.7-0.7h0c0.4,0,0.7,0.3,0.7,0.7v2.5c0,0.4-0.3,0.7-0.7,0.7h0
		C14.8,6.4,14.5,6.1,14.5,5.8z"/>
</g>
<path class="st0" d="M16.8,0.1H2.1c-0.8,0-1.5,0.7-1.5,1.5v19.7c0,0.8,0.7,1.5,1.5,1.5h14.7c0.8,0,1.5-0.7,1.5-1.5V1.7
	C18.4,0.8,17.7,0.1,16.8,0.1z M17,21.3c0,0.1-0.1,0.1-0.1,0.1H2.1C2,21.5,2,21.4,2,21.3V9.2h15V21.3z M17,8H2V1.7
	C2,1.6,2,1.5,2.1,1.5h14.7c0.1,0,0.1,0.1,0.1,0.1V8z"/>
<g>
	<path class="st0" d="M14.5,14.4v-3.2c0-0.4,0.3-0.7,0.7-0.7h0c0.4,0,0.7,0.3,0.7,0.7v3.2c0,0.4-0.3,0.7-0.7,0.7h0
		C14.8,15,14.5,14.7,14.5,14.4z"/>
</g>
</svg>
