<?xml version="1.0" encoding="utf-8"?>
<!-- Generator: Adobe Illustrator 23.0.6, SVG Export Plug-In . SVG Version: 6.00 Build 0)  -->
<svg version="1.1" id="Layer_1" xmlns="http://www.w3.org/2000/svg" xmlns:xlink="http://www.w3.org/1999/xlink" x="0px" y="0px"
	 viewBox="0 0 18.9 23" style="enable-background:new 0 0 18.9 23;" xml:space="preserve">
<style type="text/css">
	.st0{fill:#3F3F3F;}
</style>
<g>
	<path class="st0" d="M15.9,9.6h-2.4c-0.3,0-0.6-0.3-0.6-0.6V8.9c0-0.3,0.3-0.6,0.6-0.6h2.4c0.3,0,0.6,0.3,0.6,0.6V9
		C16.4,9.3,16.2,9.6,15.9,9.6z"/>
</g>
<path class="st0" d="M9.3,11.1L6.5,8.4C6.4,8.2,6.2,8.2,6.1,8.2C6,8.2,5.8,8.2,5.7,8.3c-0.2,0.2-0.2,0.6,0,0.8L7.6,11H0.7
	c-0.3,0-0.5,0.2-0.5,0.5c0,0.3,0.2,0.5,0.5,0.5h6.8l-1.8,1.8c-0.2,0.2-0.2,0.6,0,0.8c0.1,0.1,0.2,0.2,0.4,0.2c0.1,0,0.3-0.1,0.4-0.2
	l2.8-2.8c0.1-0.1,0.2-0.2,0.2-0.4C9.4,11.4,9.4,11.2,9.3,11.1z"/>
<path class="st0" d="M17.3,0.1H3.6c-0.8,0-1.5,0.7-1.5,1.5v7.7h1.4V1.7c0-0.1,0.1-0.1,0.1-0.1h13.7c0.1,0,0.1,0.1,0.1,0.1v19.7
	c0,0.1-0.1,0.1-0.1,0.1H3.6c-0.1,0-0.1-0.1-0.1-0.1v-7.7H2.1v7.7c0,0.8,0.7,1.5,1.5,1.5h13.7c0.8,0,1.5-0.7,1.5-1.5V1.7
	C18.8,0.8,18.1,0.1,17.3,0.1z"/>
<circle class="st0" cx="15.6" cy="11.1" r="0.6"/>
</svg>
