<?xml version="1.0" encoding="utf-8"?>
<!-- Generator: Adobe Illustrator 23.0.6, SVG Export Plug-In . SVG Version: 6.00 Build 0)  -->
<svg version="1.1" id="Layer_1" xmlns="http://www.w3.org/2000/svg" xmlns:xlink="http://www.w3.org/1999/xlink" x="0px" y="0px"
	 viewBox="0 0 17 18" style="enable-background:new 0 0 17 18;" xml:space="preserve">
<style type="text/css">
	.st0{fill:#3F3F3F;}
</style>
<path class="st0" d="M16.4,16.9h-0.9l0,0v-8h0.7c0.2,0,0.4-0.1,0.5-0.3s0-0.4-0.1-0.6L8.8,0.2C8.7,0.1,8.6,0,8.4,0
	C8.3,0,8.2,0.1,8,0.2L0.3,8C0.1,8.1,0.1,8.4,0.2,8.6c0.1,0.2,0.3,0.3,0.5,0.3h0.7v7.9H0.7c-0.3,0-0.6,0.2-0.6,0.6S0.4,18,0.7,18
	h15.7c0.3,0,0.6-0.2,0.6-0.6S16.7,16.9,16.4,16.9z M8.4,1.4l6.4,6.4H2L8.4,1.4z M7.9,16.9H5.1v-4.1h2.8L7.9,16.9z M9,16.8v-4.6
	c0-0.3-0.2-0.6-0.6-0.6H4.6c-0.3,0-0.6,0.3-0.6,0.6v4.6H2.5l0.1-8h11.7l0,0v8H9z"/>
</svg>
