<?xml version="1.0" encoding="utf-8"?>
<!-- Generator: Adobe Illustrator 23.0.6, SVG Export Plug-In . SVG Version: 6.00 Build 0)  -->
<svg version="1.1" id="Layer_1" xmlns="http://www.w3.org/2000/svg" xmlns:xlink="http://www.w3.org/1999/xlink" x="0px" y="0px"
	 viewBox="0 0 19 18" style="enable-background:new 0 0 19 18;" xml:space="preserve">
<style type="text/css">
	.st0{fill:#3F3F3F;}
</style>
<path class="st0" d="M18.3,16.7h-2.8V5H18h0.1l0,0c0.3,0,0.6-0.3,0.6-0.6V2.3l0,0l0,0l0,0c0,0,0,0,0-0.1s0-0.1,0-0.2V1.9
	c0,0,0-0.1-0.1-0.1l-0.1-0.1l0,0c-0.1,0-0.1,0-0.2,0l0,0L0.9,0.1C0.6,0,0.3,0.3,0.3,0.6v0.1c0,0.3,0.2,0.6,0.5,0.6l16.7,1.6v1H0.7
	c-0.3,0-0.6,0.3-0.6,0.6v0.1C0.2,4.8,0.4,5,0.7,5h13.6v11.7h-4.1v-4.4h2.5c0.3,0,0.6-0.3,0.6-0.6v-0.1c0-0.3-0.3-0.6-0.6-0.6H6.5
	c-0.3,0-0.6,0.3-0.6,0.6v0.1c0,0.3,0.3,0.6,0.6,0.6H9v4.4H7.2V14l0,0c0-0.3-0.3-0.6-0.6-0.6l0,0H3.8V9.9c0-0.3-0.3-0.6-0.6-0.6H3.1
	c-0.3,0-0.6,0.3-0.6,0.6v6.9H0.7c-0.3,0-0.6,0.3-0.6,0.6v0.1c0,0.3,0.3,0.6,0.6,0.6h17.5c0.3,0,0.6-0.3,0.6-0.6v-0.1
	C18.8,17,18.6,16.7,18.3,16.7z M3.8,14.6H6v2.1H3.8V14.6z"/>
</svg>
